# xmcd
#
# Track frame offsets: 
#        150
#        4060
#        18918
#        34494
#        48748
#        64240
#        82833
#        103086
#        115880
#        149445
#        166632
#
# Disc length: 2330 seconds
#
# Revision: 4
# Processed by: cddbd v1.5.2PL0 Copyright (c) Steve Scherf et al.
# Submitted via: ExactAudioCopy v0.99pb5
#
DISCID=8c09180b
DTITLE=Steamhammer - Steamhammer (Reflection) (1969) (REP 4871 'orange
DTITLE=')
DYEAR=1969
DGENRE=Rock
TTITLE0=Water (part 1)
TTITLE1=Junior's Wailing
TTITLE2=Lost You Too
TTITLE3=She Is The Fire
TTITLE4=You'll Never Know
TTITLE5=Even The Clock
TTITLE6=Down The Highway
TTITLE7=On Your Road
TTITLE8=Twenty Four Hours
TTITLE9=When All Your Friends Are Gone
TTITLE10=Water (part 2)
EXTD=
EXTT0=
EXTT1=
EXTT2=
EXTT3=
EXTT4=
EXTT5=
EXTT6=
EXTT7=
EXTT8=
EXTT9=
EXTT10=
PLAYORDER=
